<svg id="visual" viewBox="0 0 960 540" width="960" height="540" xmlns="http://www.w3.org/2000/svg" xmlns:xlink="http://www.w3.org/1999/xlink" version="1.1"><path d="M0 196L32 207.5C64 219 128 242 192 244C256 246 320 227 384 223.7C448 220.3 512 232.7 576 232.7C640 232.7 704 220.3 768 213.3C832 206.3 896 204.7 928 203.8L960 203L960 541L928 541C896 541 832 541 768 541C704 541 640 541 576 541C512 541 448 541 384 541C320 541 256 541 192 541C128 541 64 541 32 541L0 541Z" fill="#3d3d52"></path><path d="M0 341L32 321.5C64 302 128 263 192 258.2C256 253.3 320 282.7 384 289.3C448 296 512 280 576 281.8C640 283.7 704 303.3 768 304.8C832 306.3 896 289.7 928 281.3L960 273L960 541L928 541C896 541 832 541 768 541C704 541 640 541 576 541C512 541 448 541 384 541C320 541 256 541 192 541C128 541 64 541 32 541L0 541Z" fill="#353548"></path><path d="M0 394L32 392.8C64 391.7 128 389.3 192 373.7C256 358 320 329 384 320.3C448 311.7 512 323.3 576 337.2C640 351 704 367 768 376.5C832 386 896 389 928 390.5L960 392L960 541L928 541C896 541 832 541 768 541C704 541 640 541 576 541C512 541 448 541 384 541C320 541 256 541 192 541C128 541 64 541 32 541L0 541Z" fill="#2e2e3f"></path><path d="M0 398L32 398.3C64 398.7 128 399.3 192 392C256 384.7 320 369.3 384 369.7C448 370 512 386 576 400.7C640 415.3 704 428.7 768 422.2C832 415.7 896 389.3 928 376.2L960 363L960 541L928 541C896 541 832 541 768 541C704 541 640 541 576 541C512 541 448 541 384 541C320 541 256 541 192 541C128 541 64 541 32 541L0 541Z" fill="#272736"></path><path d="M0 465L32 463.7C64 462.3 128 459.7 192 454C256 448.3 320 439.7 384 435C448 430.3 512 429.7 576 436.3C640 443 704 457 768 466.8C832 476.7 896 482.3 928 485.2L960 488L960 541L928 541C896 541 832 541 768 541C704 541 640 541 576 541C512 541 448 541 384 541C320 541 256 541 192 541C128 541 64 541 32 541L0 541Z" fill="#20202d"></path></svg>