<svg id="visual" viewBox="0 0 900 450" width="900" height="450" xmlns="http://www.w3.org/2000/svg" xmlns:xlink="http://www.w3.org/1999/xlink" version="1.1"><path d="M0 303L21.5 303.2C43 303.3 86 303.7 128.8 305.2C171.7 306.7 214.3 309.3 257.2 306.8C300 304.3 343 296.7 385.8 295.5C428.7 294.3 471.3 299.7 514.2 301.8C557 304 600 303 642.8 306.8C685.7 310.7 728.3 319.3 771.2 317.7C814 316 857 304 878.5 298L900 292L900 451L878.5 451C857 451 814 451 771.2 451C728.3 451 685.7 451 642.8 451C600 451 557 451 514.2 451C471.3 451 428.7 451 385.8 451C343 451 300 451 257.2 451C214.3 451 171.7 451 128.8 451C86 451 43 451 21.5 451L0 451Z" fill="#474766"></path><path d="M0 306L21.5 314C43 322 86 338 128.8 338.2C171.7 338.3 214.3 322.7 257.2 313.2C300 303.7 343 300.3 385.8 301.3C428.7 302.3 471.3 307.7 514.2 309.8C557 312 600 311 642.8 316.3C685.7 321.7 728.3 333.3 771.2 337.8C814 342.3 857 339.7 878.5 338.3L900 337L900 451L878.5 451C857 451 814 451 771.2 451C728.3 451 685.7 451 642.8 451C600 451 557 451 514.2 451C471.3 451 428.7 451 385.8 451C343 451 300 451 257.2 451C214.3 451 171.7 451 128.8 451C86 451 43 451 21.5 451L0 451Z" fill="#40405b"></path><path d="M0 354L21.5 355.5C43 357 86 360 128.8 358C171.7 356 214.3 349 257.2 344.7C300 340.3 343 338.7 385.8 340.5C428.7 342.3 471.3 347.7 514.2 351.7C557 355.7 600 358.3 642.8 363.2C685.7 368 728.3 375 771.2 372.7C814 370.3 857 358.7 878.5 352.8L900 347L900 451L878.5 451C857 451 814 451 771.2 451C728.3 451 685.7 451 642.8 451C600 451 557 451 514.2 451C471.3 451 428.7 451 385.8 451C343 451 300 451 257.2 451C214.3 451 171.7 451 128.8 451C86 451 43 451 21.5 451L0 451Z" fill="#3a3a51"></path><path d="M0 400L21.5 394.8C43 389.7 86 379.3 128.8 378.7C171.7 378 214.3 387 257.2 387.5C300 388 343 380 385.8 376.2C428.7 372.3 471.3 372.7 514.2 374.7C557 376.7 600 380.3 642.8 386C685.7 391.7 728.3 399.3 771.2 402.3C814 405.3 857 403.7 878.5 402.8L900 402L900 451L878.5 451C857 451 814 451 771.2 451C728.3 451 685.7 451 642.8 451C600 451 557 451 514.2 451C471.3 451 428.7 451 385.8 451C343 451 300 451 257.2 451C214.3 451 171.7 451 128.8 451C86 451 43 451 21.5 451L0 451Z" fill="#333346"></path><path d="M0 426L21.5 422.3C43 418.7 86 411.3 128.8 406.3C171.7 401.3 214.3 398.7 257.2 397.7C300 396.7 343 397.3 385.8 399.2C428.7 401 471.3 404 514.2 406.7C557 409.3 600 411.7 642.8 415.3C685.7 419 728.3 424 771.2 421C814 418 857 407 878.5 401.5L900 396L900 451L878.5 451C857 451 814 451 771.2 451C728.3 451 685.7 451 642.8 451C600 451 557 451 514.2 451C471.3 451 428.7 451 385.8 451C343 451 300 451 257.2 451C214.3 451 171.7 451 128.8 451C86 451 43 451 21.5 451L0 451Z" fill="#2d2d3c"></path></svg>