<svg id="visual" viewBox="0 0 900 600" width="900" height="600" xmlns="http://www.w3.org/2000/svg" xmlns:xlink="http://www.w3.org/1999/xlink" version="1.1"><path d="M0 165L21.5 164.5C43 164 86 163 128.8 159C171.7 155 214.3 148 257.2 138.3C300 128.7 343 116.3 385.8 107.5C428.7 98.7 471.3 93.3 514.2 94.7C557 96 600 104 642.8 123.2C685.7 142.3 728.3 172.7 771.2 184.7C814 196.7 857 190.3 878.5 187.2L900 184L900 0L878.5 0C857 0 814 0 771.2 0C728.3 0 685.7 0 642.8 0C600 0 557 0 514.2 0C471.3 0 428.7 0 385.8 0C343 0 300 0 257.2 0C214.3 0 171.7 0 128.8 0C86 0 43 0 21.5 0L0 0Z" fill="#2d2d3c" stroke-linecap="round" stroke-linejoin="miter"></path></svg>