<svg id="visual" viewBox="0 0 900 600" width="900" height="600" xmlns="http://www.w3.org/2000/svg" xmlns:xlink="http://www.w3.org/1999/xlink" version="1.1"><path d="M0 222L21.5 214.7C43 207.3 86 192.7 128.8 179.5C171.7 166.3 214.3 154.7 257.2 151.3C300 148 343 153 385.8 162.8C428.7 172.7 471.3 187.3 514.2 180.5C557 173.7 600 145.3 642.8 133.2C685.7 121 728.3 125 771.2 141.5C814 158 857 187 878.5 201.5L900 216L900 0L878.5 0C857 0 814 0 771.2 0C728.3 0 685.7 0 642.8 0C600 0 557 0 514.2 0C471.3 0 428.7 0 385.8 0C343 0 300 0 257.2 0C214.3 0 171.7 0 128.8 0C86 0 43 0 21.5 0L0 0Z" fill="#20202d" stroke-linecap="round" stroke-linejoin="miter"></path></svg>